<?xml version="1.0" encoding="UTF-8" standalone="no"?>
<!-- Created with Inkscape (http://www.inkscape.org/) -->

<svg
   width="210mm"
   height="48mm"
   viewBox="0 0 210 48"
   version="1.1"
   id="svg1"
   inkscape:version="1.3.2 (091e20e, 2023-11-25, custom)"
   sodipodi:docname="foxa labs.svg"
   xml:space="preserve"
   xmlns:inkscape="http://www.inkscape.org/namespaces/inkscape"
   xmlns:sodipodi="http://sodipodi.sourceforge.net/DTD/sodipodi-0.dtd"
   xmlns="http://www.w3.org/2000/svg"
   xmlns:svg="http://www.w3.org/2000/svg"><sodipodi:namedview
     id="namedview1"
     pagecolor="#ffffff"
     bordercolor="#000000"
     borderopacity="0.25"
     inkscape:showpageshadow="2"
     inkscape:pageopacity="0.0"
     inkscape:pagecheckerboard="0"
     inkscape:deskcolor="#d1d1d1"
     inkscape:document-units="mm"
     inkscape:zoom="0.91336725"
     inkscape:cx="671.69039"
     inkscape:cy="279.18671"
     inkscape:window-width="2560"
     inkscape:window-height="1032"
     inkscape:window-x="1920"
     inkscape:window-y="0"
     inkscape:window-maximized="0"
     inkscape:current-layer="layer1"
     showguides="true" /><defs
     id="defs1"><rect
       x="62.132088"
       y="114.59918"
       width="684.83368"
       height="266.4776"
       id="rect1" /></defs><g
     inkscape:label="Layer 1"
     inkscape:groupmode="layer"
     id="layer1"><text
       xml:space="preserve"
       transform="matrix(0.23281022,0,0,0.22083332,5.1961144,-21.238616)"
       id="text1"
       style="font-style:normal;font-variant:normal;font-weight:bold;font-stretch:normal;font-size:160px;font-family:Franko;-inkscape-font-specification:'Franko Bold';letter-spacing:-6px;word-spacing:-3.85073px;white-space:pre;shape-inside:url(#rect1);display:inline;fill:#fe9802;fill-opacity:1"><tspan
         x="62.132812"
         y="254.59961"
         id="tspan10"><tspan
           style="fill:#797979"
           id="tspan1">fox</tspan><tspan
           style="fill:#fe7a02"
           id="tspan6">a</tspan><tspan
           dx="3.8507299"
           id="tspan7"> </tspan><tspan
           dx="-3.8507385"
           style="fill:#797979"
           id="tspan8">labs</tspan></tspan></text><path
       style="fill:#ff6600;stroke-width:0.351174"
       d="m 173.14126,35.565148 c -2.41993,-0.48724 -4.27797,-1.571978 -5.57348,-3.253807 -1.15783,-1.503102 -1.43128,-3.103774 -0.8369,-4.898894 0.59123,-1.785644 2.24909,-3.370137 4.16045,-3.976359 1.97163,-0.625339 3.91959,-0.487646 5.71693,0.404106 1.88617,0.935825 3.03975,2.34617 3.69897,4.522269 0.23657,0.780952 0.21399,2.431098 -0.0469,3.41803 -0.30896,1.169308 -1.27489,2.814026 -1.88509,3.209823 -0.13883,0.09004 -0.14555,0.06947 -0.0644,-0.19748 0.15851,-0.521765 0.12726,-2.188769 -0.0525,-2.801839 -0.67222,-2.292351 -2.78423,-3.972365 -4.82884,-3.841149 -1.27887,0.08207 -2.41083,0.875186 -2.85466,2.000151 -0.28018,0.71012 -0.29776,1.814326 -0.04,2.509775 0.0994,0.26829 0.2057,0.4878 0.23612,0.4878 0.0304,0 0.10418,-0.182823 0.16393,-0.406272 0.22632,-0.846171 1.12833,-1.680691 2.13198,-1.97246 0.27842,-0.08095 0.52457,-0.128804 0.547,-0.106372 0.0223,0.02244 -0.0224,0.192205 -0.0998,0.377271 -0.17841,0.427002 -0.17843,1.186712 -2e-5,1.774788 0.30797,1.015284 1.18255,1.967905 2.24009,2.440034 0.32319,0.144286 0.58874,0.287742 0.59011,0.318787 0.004,0.0792 -1.02089,0.177358 -1.75329,0.168006 -0.33744,-0.0039 -0.98984,-0.0836 -1.44976,-0.176208 z m 7.36814,-1.465194 c 0.54199,-0.804322 0.88433,-1.468328 1.63381,-3.168999 1.48154,-3.361829 2.26799,-5.592989 2.47724,-7.028037 0.23507,-1.612033 0.10165,-3.490265 -0.34984,-4.92485 -0.23585,-0.749406 -0.82508,-2.013085 -1.15891,-2.48547 -0.34011,-0.481239 -0.004,-0.25537 0.83023,0.557489 1.0062,0.980727 1.78417,2.136245 2.26322,3.361502 1.83722,4.699035 0.0773,10.287932 -4.14582,13.165161 -0.74193,0.50549 -1.7112,1.057458 -1.85692,1.057458 -0.0291,0 0.10899,-0.240413 0.30699,-0.534254 z m 2.34145,-9.995922 c 0,-0.426304 -0.30392,-1.359725 -0.62528,-1.920406 -1.1857,-2.068688 -3.23977,-3.330109 -5.91238,-3.630844 -1.17586,-0.132316 -2.02149,-0.05646 -4.89085,0.438726 -1.75836,0.303449 -2.01189,0.325369 -3.29849,0.285139 l -1.39372,-0.04358 -0.20839,0.25805 c -0.3736,0.462622 -0.35774,0.502801 0.32057,0.81209 1.59074,0.725323 2.50978,0.752369 4.62648,0.136164 0.71545,-0.208277 1.37015,-0.39231 1.45489,-0.408963 0.0847,-0.01664 0.40658,0.177806 0.71517,0.43213 l 0.56107,0.462404 -1.04037,0.153464 c -0.5722,0.08441 -1.48239,0.279862 -2.02266,0.43435 -1.34234,0.383832 -2.00163,0.441561 -2.92012,0.255699 -1.09292,-0.221161 -1.75814,-0.580155 -2.54087,-1.371235 -0.59098,-0.597294 -1.22065,-1.406315 -1.22178,-1.56978 -2.2e-4,-0.03175 0.19821,-0.08448 0.44094,-0.1172 0.69916,-0.09423 3.27938,-0.765574 3.74267,-0.973803 0.68043,-0.305834 1.15071,-0.697888 1.79641,-1.497623 0.78602,-0.973556 1.23731,-1.345573 2.15952,-1.780218 1.00743,-0.474809 2.08678,-0.727439 3.39314,-0.794201 l 1.08017,-0.0552 0.15735,-0.565952 c 0.30863,-1.110079 1.21938,-2.327863 2.54099,-3.3976311 0.46071,-0.372919 0.87016,-0.675367 0.90987,-0.672108 0.0976,0.0081 0.55557,1.5202991 0.79127,2.6130261 0.22823,1.058011 0.33494,3.533264 0.19448,4.511186 -0.0871,0.60641 -0.079,0.672906 0.12105,0.983111 0.78211,1.21329 1.1932,2.403703 1.34693,3.900498 0.1148,1.11774 -9e-4,3.192259 -0.18849,3.379863 -0.0575,0.05748 -0.0896,-0.03466 -0.0896,-0.25715 z m -8.74073,-6.810961 c 0.25412,-0.323066 0.24321,-0.602565 -0.0353,-0.903051 -0.45815,-0.494344 -1.16587,-0.210908 -1.16587,0.466922 0,0.455371 0.21798,0.680947 0.65805,0.680947 0.268,0 0.39585,-0.05763 0.54309,-0.244818 z m -1.97199,-5.209186 c -0.0327,-0.712423 -0.13205,-1.502276 -0.24769,-1.969587 -0.10618,-0.4290991 -0.17906,-0.7941841 -0.16194,-0.8112961 0.0172,-0.01711 0.36288,0.185982 0.76838,0.451325 0.77246,0.5054511 2.64205,2.3001301 2.64205,2.5361751 0,0.08806 -0.0927,0.137071 -0.25923,0.137071 -0.47259,0 -1.52755,0.326472 -2.58436,0.799771 -0.0703,0.03153 -0.11973,-0.327022 -0.15721,-1.143459 z"
       id="path6" /><text
       xml:space="preserve"
       style="font-style:normal;font-variant:normal;font-weight:normal;font-stretch:normal;font-size:5.64444px;font-family:'Microsoft Uighur';-inkscape-font-specification:'Microsoft Uighur';letter-spacing:2.52148px;word-spacing:0px;fill:#1a1a1a;fill-opacity:1;stroke-width:0.264583"
       x="22.884642"
       y="39.686028"
       id="text9"><tspan
         sodipodi:role="line"
         id="tspan9"
         x="22.884642"
         y="39.686028"
         style="font-style:normal;font-variant:normal;font-weight:normal;font-stretch:normal;font-size:5.64444px;font-family:'Microsoft Uighur';-inkscape-font-specification:'Microsoft Uighur';letter-spacing:2.52148px;word-spacing:0px;stroke-width:0.264583">artificial intelligence consultants</tspan></text></g></svg>
