<?xml version="1.0" encoding="UTF-8" standalone="no"?>
<!-- Created with Inkscape (http://www.inkscape.org/) -->

<svg
   width="166.722mm"
   height="27.621418mm"
   viewBox="0 0 166.722 27.621418"
   version="1.1"
   id="svg1"
   inkscape:version="1.3.2 (091e20e, 2023-11-25, custom)"
   sodipodi:docname="foxa labs-curves.svg"
   xml:space="preserve"
   xmlns:inkscape="http://www.inkscape.org/namespaces/inkscape"
   xmlns:sodipodi="http://sodipodi.sourceforge.net/DTD/sodipodi-0.dtd"
   xmlns="http://www.w3.org/2000/svg"
   xmlns:svg="http://www.w3.org/2000/svg"><sodipodi:namedview
     id="namedview1"
     pagecolor="#ffffff"
     bordercolor="#000000"
     borderopacity="0.25"
     inkscape:showpageshadow="2"
     inkscape:pageopacity="0.0"
     inkscape:pagecheckerboard="0"
     inkscape:deskcolor="#d1d1d1"
     inkscape:document-units="mm"
     inkscape:zoom="1.8267345"
     inkscape:cx="318.05388"
     inkscape:cy="45.709981"
     inkscape:window-width="2560"
     inkscape:window-height="1009"
     inkscape:window-x="1912"
     inkscape:window-y="-8"
     inkscape:window-maximized="1"
     inkscape:current-layer="layer1"
     showguides="true" /><defs
     id="defs1"><rect
       x="62.132088"
       y="114.59918"
       width="684.83368"
       height="266.4776"
       id="rect1" /></defs><g
     inkscape:label="Layer 1"
     inkscape:groupmode="layer"
     id="layer1"
     transform="translate(-0.6277467,-0.82992447)"><path
       style="font-weight:bold;font-size:160px;font-family:Franko;-inkscape-font-specification:'Franko Bold';letter-spacing:-6px;word-spacing:-3.85073px;white-space:pre;fill:#797979;stroke-width:0.226743"
       d="M 3.5378743,28.10629 V 12.975756 H 0.62774658 V 9.4389736 H 3.5378743 V 7.3686612 q 0,-3.2089842 1.8733948,-4.8652341 1.8733947,-1.6735036 5.4201139,-1.6735036 0.691155,0 1.364121,0.10351562 0.672968,0.0862641 1.546006,0.25879018 L 13.286802,4.936043 Q 12.850283,4.8497811 12.431953,4.8152759 12.03181,4.763517 11.486161,4.763517 q -1.309557,0 -1.9643358,0.6728526 -0.6547794,0.655599 -0.6547794,1.9322916 V 9.4389736 H 12.777529 V 12.975756 H 8.8670458 V 28.10629 Z m 9.6798127,-9.506185 q 0,-4.261392 2.419043,-6.883788 2.419045,-2.6223955 6.8388,-2.6223955 4.456134,0 6.875177,2.6223955 2.437232,2.622396 2.437232,6.883788 v 0.362305 q 0,4.295898 -2.419043,6.901042 -2.419044,2.58789 -6.856989,2.58789 -4.456132,0 -6.875177,-2.58789 -2.419043,-2.605144 -2.419043,-6.901042 z m 5.292794,0.362305 q 0,2.605142 0.927605,4.123372 0.927602,1.500977 3.073821,1.500977 2.091655,0 3.019257,-1.518229 0.945792,-1.518229 0.945792,-4.10612 v -0.362305 q 0,-2.536132 -0.945792,-4.071615 -0.945791,-1.552734 -3.055634,-1.552734 -2.091653,0 -3.037444,1.552734 -0.927605,1.552735 -0.927605,4.071615 z m 22.22974,-3.485025 3.073821,-6.0384114 h 6.002138 l -5.929385,9.2301414 6.129458,9.437175 h -5.983951 l -3.219328,-6.193685 -3.21933,6.193685 h -6.002139 l 6.129458,-9.437175 -5.947575,-9.2301414 h 5.965762 z"
       id="path12" /><path
       style="font-weight:bold;font-size:160px;font-family:Franko;-inkscape-font-specification:'Franko Bold';letter-spacing:-6px;word-spacing:-3.85073px;white-space:pre;fill:#f97316;stroke-width:0.226743;fill-opacity:1"
       d="m 62.460685,28.10629 q -0.236446,-0.517578 -0.418329,-1.086915 -0.181883,-0.569335 -0.291013,-1.173177 -0.927604,1.190431 -2.237162,1.897786 -1.309557,0.707358 -3.092011,0.707358 -2.946504,0 -4.619827,-1.483724 -1.673324,-1.500977 -1.673324,-4.123373 0,-2.794922 2.182596,-4.278645 2.182596,-1.483724 6.547787,-1.483724 h 2.710058 v -1.483724 q 0,-1.380208 -0.745721,-2.104818 -0.727532,-0.724609 -2.218973,-0.724609 -1.345934,0 -2.055276,0.586588 -0.691156,0.569337 -0.691156,1.638999 h -5.292796 q 0,-2.501629 2.273539,-4.192384 2.291725,-1.7080065 6.111268,-1.7080065 3.601283,0 5.765689,1.6735015 2.182596,1.65625 2.182596,4.865234 v 7.711915 q 0,1.345703 0.200073,2.484375 0.218259,1.121418 0.672966,2.277343 z m -4.601638,-3.364259 q 1.218615,0 2.182596,-0.483072 0.982168,-0.483073 1.527817,-1.242188 v -3.088215 h -2.710058 q -1.746076,0 -2.600925,0.79362 -0.836662,0.776366 -0.836662,1.949543 0,0.948894 0.636589,1.518229 0.654779,0.552083 1.800643,0.552083 z"
       id="path13" /><path
       style="font-weight:bold;font-size:160px;font-family:Franko;-inkscape-font-specification:'Franko Bold';letter-spacing:-6px;word-spacing:-3.85073px;white-space:pre;fill:#797979;stroke-width:0.226743"
       d="M 75.105191,28.10629 H 69.794207 V 1.1922293 h 5.310984 z m 14.517901,0 q -0.23645,-0.517578 -0.418332,-1.086915 -0.181883,-0.569335 -0.291013,-1.173177 -0.927602,1.190431 -2.23716,1.897786 -1.309557,0.707358 -3.092011,0.707358 -2.946504,0 -4.619827,-1.483724 -1.673324,-1.500977 -1.673324,-4.123373 0,-2.794922 2.182596,-4.278645 2.182596,-1.483724 6.547787,-1.483724 h 2.710056 v -1.483724 q 0,-1.380208 -0.745719,-2.104818 -0.727532,-0.724609 -2.218973,-0.724609 -1.345934,0 -2.055279,0.586588 -0.691155,0.569337 -0.691155,1.638999 h -5.292794 q 0,-2.501629 2.273536,-4.192384 2.291726,-1.7080065 6.111269,-1.7080065 3.601283,0 5.765692,1.6735015 2.182595,1.65625 2.182595,4.865234 v 7.711915 q 0,1.345703 0.20007,2.484375 0.21826,1.121418 0.672969,2.277343 z m -4.601641,-3.364259 q 1.218617,0 2.182596,-0.483072 0.982168,-0.483073 1.527817,-1.242188 v -3.088215 h -2.710056 q -1.746076,0 -2.600927,0.79362 -0.836662,0.776366 -0.836662,1.949543 0,0.948894 0.636591,1.518229 0.654779,0.552083 1.800641,0.552083 z m 29.414119,-5.451822 q 0,4.261394 -1.92796,6.711264 -1.92796,2.449869 -5.71113,2.449869 -1.76426,0 -3.01926,-0.655599 -1.2368,-0.672852 -2.12803,-1.98405 l -0.38195,2.294597 H 96.683788 V 1.1922293 h 5.292792 V 11.33676 l 0.0546,0.01725 q 0.83666,-1.104167 1.98252,-1.6735014 1.16405,-0.5865885 2.74644,-0.5865885 3.81954,0 5.7475,2.6396469 1.92796,2.63965 1.92796,7.194337 z m -5.2928,-0.362304 q 0,-2.77767 -0.83666,-4.347656 -0.81847,-1.569988 -2.89194,-1.569988 -1.25499,0 -2.09165,0.483073 -0.83666,0.483073 -1.34594,1.414714 v 7.88444 q 0.50928,0.879882 1.34594,1.32845 0.83666,0.431316 2.12803,0.431316 2.09165,0 2.89194,-1.345703 0.80028,-1.345703 0.80028,-3.916342 z m 17.80999,4.037109 q 0,-0.845378 -0.83667,-1.431967 -0.81847,-0.586588 -3.14657,-1.069661 -3.54672,-0.690104 -5.2928,-1.966797 -1.74607,-1.293944 -1.74607,-3.623047 0,-2.467121 2.10984,-4.123371 2.10984,-1.6562495 5.7475,-1.6562495 3.83773,0 6.03852,1.6735015 2.21897,1.65625 2.21897,4.330404 h -5.2928 q 0,-1.138671 -0.74572,-1.828776 -0.72753,-0.707357 -2.21897,-0.707357 -1.30956,0 -2.03709,0.586588 -0.72753,0.586589 -0.72753,1.500978 0,0.879881 0.74572,1.414713 0.76391,0.53483 3.16476,0.983397 3.71042,0.707358 5.43831,2.018556 1.72788,1.293944 1.72788,3.692057 0,2.570637 -2.23716,4.140625 -2.21897,1.552734 -6.03851,1.552734 -4.01962,0 -6.27497,-1.863281 -2.23716,-1.880535 -2.23716,-4.416666 h 5.01997 q 0.0546,1.518229 1.01855,2.173828 0.96398,0.655599 2.58274,0.655599 1.49144,0 2.25535,-0.534832 0.76391,-0.53483 0.76391,-1.500976 z"
       id="path14" /><path
       style="fill:#f97316;fill-opacity:1;stroke-width:0.351174"
       d="m 142.4494,27.627643 c -2.41993,-0.48724 -4.27797,-1.571978 -5.57348,-3.253807 -1.15783,-1.503102 -1.43128,-3.103774 -0.8369,-4.898894 0.59123,-1.785644 2.24909,-3.370137 4.16045,-3.976359 1.97163,-0.625339 3.91959,-0.487646 5.71693,0.404106 1.88617,0.935825 3.03975,2.34617 3.69897,4.522269 0.23657,0.780952 0.21399,2.431098 -0.0469,3.41803 -0.30896,1.169308 -1.27489,2.814026 -1.88509,3.209823 -0.13883,0.09004 -0.14555,0.06947 -0.0644,-0.19748 0.15851,-0.521765 0.12726,-2.188769 -0.0525,-2.801839 -0.67222,-2.292351 -2.78423,-3.972365 -4.82884,-3.841149 -1.27887,0.08207 -2.41083,0.875186 -2.85466,2.000151 -0.28018,0.71012 -0.29776,1.814326 -0.04,2.509775 0.0994,0.26829 0.2057,0.4878 0.23612,0.4878 0.0304,0 0.10418,-0.182823 0.16393,-0.406272 0.22632,-0.846171 1.12833,-1.680691 2.13198,-1.97246 0.27842,-0.08095 0.52457,-0.128804 0.547,-0.106372 0.0223,0.02244 -0.0224,0.192205 -0.0998,0.377271 -0.17841,0.427002 -0.17843,1.186712 -2e-5,1.774788 0.30797,1.015284 1.18255,1.967905 2.24009,2.440034 0.32319,0.144286 0.58874,0.287742 0.59011,0.318787 0.004,0.0792 -1.02089,0.177358 -1.75329,0.168006 -0.33744,-0.0039 -0.98984,-0.0836 -1.44976,-0.176208 z m 7.36814,-1.465194 c 0.54199,-0.804322 0.88433,-1.468328 1.63381,-3.168999 1.48154,-3.361829 2.26799,-5.592989 2.47724,-7.028037 0.23507,-1.612033 0.10165,-3.490265 -0.34984,-4.92485 -0.23585,-0.749406 -0.82508,-2.0130844 -1.15891,-2.4854691 -0.34011,-0.4812387 -0.004,-0.2553697 0.83023,0.5574887 1.0062,0.9807264 1.78417,2.1362444 2.26322,3.3615014 1.83722,4.699035 0.0773,10.287932 -4.14582,13.165161 -0.74193,0.50549 -1.7112,1.057458 -1.85692,1.057458 -0.0291,0 0.10899,-0.240413 0.30699,-0.534254 z m 2.34145,-9.995922 c 0,-0.426304 -0.30392,-1.359725 -0.62528,-1.920406 -1.1857,-2.068688 -3.23977,-3.330109 -5.91238,-3.630844 -1.17586,-0.132316 -2.02149,-0.05646 -4.89085,0.438726 -1.75836,0.303449 -2.01189,0.325369 -3.29849,0.285139 l -1.39372,-0.04358 -0.20839,0.25805 c -0.3736,0.462622 -0.35774,0.502801 0.32057,0.81209 1.59074,0.725323 2.50978,0.752369 4.62648,0.136164 0.71545,-0.208277 1.37015,-0.39231 1.45489,-0.408963 0.0847,-0.01664 0.40658,0.177806 0.71517,0.43213 l 0.56107,0.462404 -1.04037,0.153464 c -0.5722,0.08441 -1.48239,0.279862 -2.02266,0.43435 -1.34234,0.383832 -2.00163,0.441561 -2.92012,0.255699 -1.09292,-0.221161 -1.75814,-0.580155 -2.54087,-1.371235 -0.59098,-0.597294 -1.22065,-1.406315 -1.22178,-1.56978 -2.2e-4,-0.03175 0.19821,-0.08448 0.44094,-0.1172 0.69916,-0.09423 3.27938,-0.765574 3.74267,-0.9738027 0.68043,-0.305834 1.15071,-0.6978877 1.79641,-1.4976221 0.78602,-0.9735554 1.23731,-1.3455724 2.15952,-1.7802171 1.00743,-0.4748087 2.08678,-0.7274387 3.39314,-0.7942004 l 1.08017,-0.0552 0.15735,-0.5659517 c 0.30863,-1.1100784 1.21938,-2.3278618 2.54099,-3.3976296 0.46071,-0.372919 0.87016,-0.675367 0.90987,-0.672108 0.0976,0.0081 0.55557,1.5202991 0.79127,2.6130255 0.22823,1.0580104 0.33494,3.5332619 0.19448,4.5111833 -0.0871,0.6064097 -0.079,0.6729057 0.12105,0.9831104 0.78211,1.2132894 1.1932,2.4037024 1.34693,3.9004974 0.1148,1.11774 -9e-4,3.192259 -0.18849,3.379863 -0.0575,0.05748 -0.0896,-0.03466 -0.0896,-0.25715 z m -8.74073,-6.8109604 c 0.25412,-0.323066 0.24321,-0.6025647 -0.0353,-0.9030507 -0.45815,-0.4943437 -1.16587,-0.2109077 -1.16587,0.466922 0,0.4553707 0.21798,0.6809464 0.65805,0.6809464 0.268,0 0.39585,-0.05763 0.54309,-0.2448177 z m -1.97199,-5.209183 c -0.0327,-0.7124227 -0.13205,-1.5022754 -0.24769,-1.9695861 -0.10618,-0.4290991 -0.17906,-0.7941841 -0.16194,-0.8112961 0.0172,-0.01711 0.36288,0.185982 0.76838,0.451325 0.77246,0.5054511 2.64205,2.3001292 2.64205,2.5361739 0,0.08806 -0.0927,0.137071 -0.25923,0.137071 -0.47259,0 -1.52755,0.3264717 -2.58436,0.7997704 -0.0703,0.03153 -0.11973,-0.3270217 -0.15721,-1.1434581 z"
       id="path6" /></g></svg>
