<?xml version="1.0" encoding="UTF-8" standalone="no"?>
<svg
   width="865.10504"
   height="191.20029"
   viewBox="0 0 865.10504 191.20029"
   fill="none"
   version="1.1"
   id="svg7"
   sodipodi:docname="huggingface.svg"
   inkscape:version="1.3.2 (091e20e, 2023-11-25, custom)"
   xmlns:inkscape="http://www.inkscape.org/namespaces/inkscape"
   xmlns:sodipodi="http://sodipodi.sourceforge.net/DTD/sodipodi-0.dtd"
   xmlns="http://www.w3.org/2000/svg"
   xmlns:svg="http://www.w3.org/2000/svg">
  <defs
     id="defs7" />
  <sodipodi:namedview
     id="namedview7"
     pagecolor="#ffffff"
     bordercolor="#000000"
     borderopacity="0.25"
     inkscape:showpageshadow="2"
     inkscape:pageopacity="0.0"
     inkscape:pagecheckerboard="0"
     inkscape:deskcolor="#d1d1d1"
     inkscape:zoom="2.1214953"
     inkscape:cx="438.60573"
     inkscape:cy="97.337004"
     inkscape:window-width="2560"
     inkscape:window-height="1009"
     inkscape:window-x="1912"
     inkscape:window-y="-8"
     inkscape:window-maximized="1"
     inkscape:current-layer="svg7" />
  <path
     d="M 244.41406,130.464 V 61.6089 h 18.22 V 87.244 h 20.551 V 61.6089 h 18.22 v 68.8551 h -18.22 v -27.33 h -20.551 v 27.33 z m 86.825,1.271 c -5.791,0 -9.993,-1.942 -12.606,-5.826 -2.613,-3.955 -3.919,-9.216 -3.919,-15.784 V 77.499 h 18.22 v 30.296 c 0,3.39 0.424,5.649 1.271,6.779 0.918,1.13 2.26,1.695 4.026,1.695 1.694,0 3.107,-0.353 4.237,-1.059 1.13,-0.706 2.26,-1.907 3.39,-3.602 V 77.499 h 18.22 v 52.965 h -14.831 l -1.271,-6.991 h -0.424 c -2.118,2.542 -4.484,4.555 -7.097,6.038 -2.542,1.483 -5.614,2.224 -9.216,2.224 z m 64.419,20.551 c -4.025,0 -7.733,-0.459 -11.123,-1.377 -3.389,-0.848 -6.108,-2.225 -8.156,-4.132 -1.978,-1.906 -2.966,-4.449 -2.966,-7.627 0,-4.166 2.471,-7.556 7.415,-10.169 v -0.424 c -1.354,-1.001 -2.535,-2.218 -3.496,-3.601 -0.918,-1.483 -1.377,-3.32 -1.377,-5.509 0,-1.836 0.53,-3.637 1.589,-5.402 1.13,-1.766 2.578,-3.284 4.343,-4.555 v -0.424 c -1.907,-1.271 -3.601,-3.072 -5.084,-5.403 -1.413,-2.401 -2.119,-5.12 -2.119,-8.156 0,-4.379 1.059,-7.98 3.178,-10.805 2.189,-2.896 5.014,-5.014 8.474,-6.356 3.461,-1.412 7.133,-2.119 11.017,-2.119 3.107,0 5.932,0.424 8.474,1.272 h 19.704 v 13.135 h -7.627 c 0.211,0.636 0.388,1.448 0.529,2.436 0.212,0.989 0.318,2.013 0.318,3.072 0,4.167 -0.953,7.557 -2.86,10.17 -1.907,2.542 -4.484,4.414 -7.733,5.614 -3.249,1.201 -6.85,1.801 -10.805,1.801 -1.765,0 -3.743,-0.247 -5.932,-0.742 -0.848,0.777 -1.271,1.801 -1.271,3.072 0,1.13 0.565,1.942 1.695,2.437 1.2,0.494 3.107,0.741 5.72,0.741 h 7.945 c 6.638,0 11.758,1.095 15.36,3.284 3.672,2.119 5.508,5.614 5.508,10.487 0,3.814 -1.271,7.168 -3.813,10.064 -2.472,2.895 -6.003,5.155 -10.594,6.779 -4.59,1.625 -10.028,2.437 -16.313,2.437 z m 1.695,-49.364 c 1.695,0 3.072,-0.6 4.131,-1.801 1.06,-1.2 1.589,-3.072 1.589,-5.614 0,-2.472 -0.529,-4.273 -1.589,-5.403 -1.059,-1.2 -2.436,-1.8 -4.131,-1.8 -1.695,0 -3.072,0.6 -4.131,1.8 -1.06,1.13 -1.589,2.931 -1.589,5.403 0,2.542 0.529,4.414 1.589,5.614 1.059,1.201 2.436,1.801 4.131,1.801 z m 1.271,38.135 c 2.966,0 5.438,-0.459 7.415,-1.377 1.978,-0.848 2.966,-2.013 2.966,-3.496 0,-1.412 -0.635,-2.295 -1.906,-2.648 -1.201,-0.353 -2.931,-0.53 -5.191,-0.53 h -4.131 c -2.119,0 -3.743,-0.07 -4.873,-0.212 -1.059,-0.07 -1.977,-0.211 -2.754,-0.423 -1.271,1.271 -1.907,2.542 -1.907,3.813 0,1.695 0.953,2.931 2.86,3.708 1.978,0.777 4.485,1.165 7.521,1.165 z m 54.862,11.229 c -4.026,0 -7.733,-0.459 -11.123,-1.377 -3.39,-0.848 -6.109,-2.225 -8.157,-4.132 -1.977,-1.906 -2.966,-4.449 -2.966,-7.627 0,-4.166 2.472,-7.556 7.415,-10.169 v -0.424 c -1.354,-1.001 -2.535,-2.218 -3.495,-3.601 -0.919,-1.483 -1.378,-3.32 -1.378,-5.509 0,-1.836 0.53,-3.637 1.589,-5.402 1.13,-1.766 2.578,-3.284 4.344,-4.555 v -0.424 c -1.907,-1.271 -3.602,-3.072 -5.085,-5.403 -1.413,-2.401 -2.119,-5.12 -2.119,-8.156 0,-4.379 1.06,-7.98 3.178,-10.805 2.189,-2.896 5.014,-5.014 8.475,-6.356 3.46,-1.412 7.132,-2.119 11.016,-2.119 3.108,0 5.933,0.424 8.475,1.272 h 19.703 v 13.135 h -7.627 c 0.212,0.636 0.388,1.448 0.53,2.436 0.211,0.989 0.317,2.013 0.317,3.072 0,4.167 -0.953,7.557 -2.86,10.17 -1.906,2.542 -4.484,4.414 -7.733,5.614 -3.248,1.201 -6.85,1.801 -10.805,1.801 -1.765,0 -3.742,-0.247 -5.932,-0.742 -0.847,0.777 -1.271,1.801 -1.271,3.072 0,1.13 0.565,1.942 1.695,2.437 1.201,0.494 3.107,0.741 5.72,0.741 h 7.945 c 6.638,0 11.758,1.095 15.36,3.284 3.672,2.119 5.508,5.614 5.508,10.487 0,3.814 -1.271,7.168 -3.813,10.064 -2.472,2.895 -6.003,5.155 -10.593,6.779 -4.59,1.625 -10.028,2.437 -16.313,2.437 z m 1.694,-49.364 c 1.695,0 3.072,-0.6 4.132,-1.801 1.059,-1.2 1.589,-3.072 1.589,-5.614 0,-2.472 -0.53,-4.273 -1.589,-5.403 -1.06,-1.2 -2.437,-1.8 -4.132,-1.8 -1.694,0 -3.072,0.6 -4.131,1.8 -1.059,1.13 -1.589,2.931 -1.589,5.403 0,2.542 0.53,4.414 1.589,5.614 1.059,1.201 2.437,1.801 4.131,1.801 z m 1.272,38.135 c 2.966,0 5.437,-0.459 7.415,-1.377 1.977,-0.848 2.966,-2.013 2.966,-3.496 0,-1.412 -0.636,-2.295 -1.907,-2.648 -1.2,-0.353 -2.931,-0.53 -5.191,-0.53 h -4.131 c -2.118,0 -3.743,-0.07 -4.873,-0.212 -1.059,-0.07 -1.977,-0.211 -2.754,-0.423 -1.271,1.271 -1.907,2.542 -1.907,3.813 0,1.695 0.954,2.931 2.861,3.708 1.977,0.777 4.484,1.165 7.521,1.165 z m 35.582,-10.593 V 77.499 h 18.22 v 52.965 z m 9.11,-59.533 c -2.966,0 -5.368,-0.812 -7.204,-2.4361 -1.836,-1.695 -2.754,-3.92 -2.754,-6.674 0,-2.754 0.918,-4.944 2.754,-6.568 1.836,-1.695 4.238,-2.542 7.204,-2.542 2.966,0 5.367,0.847 7.203,2.542 1.836,1.624 2.754,3.814 2.754,6.568 0,2.754 -0.918,4.979 -2.754,6.674 -1.836,1.6241 -4.237,2.4361 -7.203,2.4361 z m 21.407,59.533 V 77.499 h 14.83 l 1.271,6.355 h 0.424 c 2.118,-2.048 4.52,-3.813 7.203,-5.296 2.754,-1.554 5.932,-2.331 9.534,-2.331 5.861,0 10.063,1.978 12.606,5.933 2.613,3.884 3.919,9.11 3.919,15.677 v 32.627 h -18.22 v -30.296 c 0,-3.39 -0.424,-5.65 -1.271,-6.78 -0.848,-1.13 -2.189,-1.695 -4.026,-1.695 -1.694,0 -3.107,0.353 -4.237,1.06 -1.13,0.706 -2.401,1.695 -3.813,2.966 v 34.745 z m 80.934,21.822 c -4.025,0 -7.733,-0.459 -11.123,-1.377 -3.389,-0.848 -6.108,-2.225 -8.156,-4.132 -1.978,-1.906 -2.966,-4.449 -2.966,-7.627 0,-4.166 2.471,-7.556 7.415,-10.169 v -0.424 c -1.354,-1.001 -2.535,-2.218 -3.496,-3.601 -0.918,-1.483 -1.377,-3.32 -1.377,-5.509 0,-1.836 0.53,-3.637 1.589,-5.402 1.13,-1.766 2.578,-3.284 4.343,-4.555 v -0.424 c -1.907,-1.271 -3.602,-3.072 -5.085,-5.403 -1.412,-2.401 -2.118,-5.12 -2.118,-8.156 0,-4.379 1.059,-7.98 3.178,-10.805 2.189,-2.896 5.014,-5.014 8.474,-6.356 3.461,-1.412 7.133,-2.119 11.017,-2.119 3.107,0 5.932,0.424 8.474,1.272 h 19.703 v 13.135 h -7.627 c 0.212,0.636 0.389,1.448 0.53,2.436 0.212,0.989 0.318,2.013 0.318,3.072 0,4.167 -0.953,7.557 -2.86,10.17 -1.907,2.542 -4.485,4.414 -7.733,5.614 -3.249,1.201 -6.85,1.801 -10.805,1.801 -1.766,0 -3.743,-0.247 -5.932,-0.742 -0.848,0.777 -1.271,1.801 -1.271,3.072 0,1.13 0.565,1.942 1.695,2.437 1.2,0.494 3.107,0.741 5.72,0.741 h 7.945 c 6.638,0 11.758,1.095 15.36,3.284 3.672,2.119 5.508,5.614 5.508,10.487 0,3.814 -1.271,7.168 -3.814,10.064 -2.471,2.895 -6.002,5.155 -10.593,6.779 -4.59,1.625 -10.028,2.437 -16.313,2.437 z m 1.695,-49.364 c 1.695,0 3.072,-0.6 4.131,-1.801 1.06,-1.2 1.589,-3.072 1.589,-5.614 0,-2.472 -0.529,-4.273 -1.589,-5.403 -1.059,-1.2 -2.436,-1.8 -4.131,-1.8 -1.695,0 -3.072,0.6 -4.131,1.8 -1.06,1.13 -1.589,2.931 -1.589,5.403 0,2.542 0.529,4.414 1.589,5.614 1.059,1.201 2.436,1.801 4.131,1.801 z m 1.271,38.135 c 2.966,0 5.438,-0.459 7.415,-1.377 1.978,-0.848 2.966,-2.013 2.966,-3.496 0,-1.412 -0.635,-2.295 -1.906,-2.648 -1.201,-0.353 -2.931,-0.53 -5.191,-0.53 h -4.131 c -2.119,0 -3.743,-0.07 -4.873,-0.212 -1.059,-0.07 -1.978,-0.211 -2.754,-0.423 -1.272,1.271 -1.907,2.542 -1.907,3.813 0,1.695 0.953,2.931 2.86,3.708 1.977,0.777 4.484,1.165 7.521,1.165 z m 58.272,-10.593 V 61.6089 h 44.914 V 76.863 h -26.694 v 13.135 h 22.881 v 15.254 h -22.881 v 25.212 z m 64.839,1.271 c -3.319,0 -6.179,-0.741 -8.58,-2.224 -2.292,-1.512 -4.154,-3.592 -5.402,-6.038 -1.272,-2.472 -1.907,-5.156 -1.907,-8.051 0,-5.509 2.26,-9.816 6.779,-12.924 4.52,-3.178 11.865,-5.296 22.034,-6.356 -0.424,-3.672 -2.896,-5.508 -7.415,-5.508 -1.907,0 -3.92,0.388 -6.038,1.165 -2.119,0.706 -4.555,1.801 -7.31,3.284 l -6.355,-11.864 c 3.743,-2.26 7.521,-3.99 11.334,-5.191 3.877,-1.199 7.912,-1.806 11.97,-1.801 6.921,0 12.324,1.978 16.208,5.933 3.884,3.884 5.826,10.169 5.826,18.855 v 29.449 h -14.83 l -1.271,-5.085 h -0.424 c -2.119,1.907 -4.379,3.461 -6.78,4.661 -2.33,1.13 -4.943,1.695 -7.839,1.695 z m 6.356,-13.983 c 1.483,0 2.719,-0.318 3.708,-0.953 0.988,-0.706 1.942,-1.589 2.86,-2.648 v -7.204 c -4.308,0.636 -7.309,1.589 -9.004,2.86 -1.624,1.272 -2.437,2.649 -2.437,4.132 0,2.542 1.625,3.813 4.873,3.813 z m 60.607,13.983 c -5.014,0 -9.534,-1.095 -13.559,-3.284 -4.026,-2.189 -7.239,-5.332 -9.64,-9.428 -2.331,-4.166 -3.496,-9.18 -3.496,-15.042 0,-5.861 1.307,-10.84 3.92,-14.936 2.683,-4.167 6.179,-7.344 10.487,-9.534 4.307,-2.189 8.968,-3.284 13.982,-3.284 3.178,0 6.039,0.495 8.581,1.483 2.613,0.989 4.908,2.331 6.885,4.026 l -8.474,11.652 c -1.13,-0.988 -2.154,-1.659 -3.072,-2.012 -0.912,-0.353 -1.882,-0.532 -2.86,-0.53 -3.39,0 -6.038,1.2 -7.945,3.602 -1.907,2.33 -2.86,5.508 -2.86,9.533 0,4.026 0.989,7.239 2.966,9.64 1.977,2.33 4.378,3.496 7.203,3.496 1.483,0 2.931,-0.318 4.343,-0.954 1.448,-0.685 2.831,-1.501 4.132,-2.436 l 6.991,11.864 c -2.613,2.331 -5.508,3.955 -8.686,4.873 -3.178,0.847 -6.144,1.271 -8.898,1.271 z m 47.394,0 c -5.156,0 -9.817,-1.095 -13.983,-3.284 -4.096,-2.189 -7.345,-5.332 -9.746,-9.428 -2.401,-4.166 -3.601,-9.18 -3.601,-15.042 0,-5.72 1.2,-10.628 3.601,-14.724 2.472,-4.167 5.65,-7.38 9.534,-9.64 3.884,-2.26 7.98,-3.39 12.288,-3.39 5.226,0 9.534,1.166 12.923,3.496 3.461,2.26 6.003,5.332 7.627,9.216 1.695,3.884 2.543,8.192 2.543,12.924 0,1.553 -0.106,3.072 -0.318,4.555 -0.141,1.412 -0.283,2.436 -0.424,3.072 h -30.19 c 0.847,3.178 2.366,5.402 4.555,6.673 2.189,1.201 4.767,1.801 7.733,1.801 3.39,0 6.991,-1.059 10.805,-3.178 l 5.932,10.805 c -2.825,1.977 -6.003,3.496 -9.534,4.555 -3.531,1.059 -6.779,1.589 -9.745,1.589 z m -9.958,-34.11 h 15.678 c 0,-2.048 -0.53,-3.813 -1.589,-5.296 -0.989,-1.554 -2.86,-2.331 -5.614,-2.331 -1.978,0 -3.743,0.601 -5.297,1.801 -1.554,1.201 -2.613,3.143 -3.178,5.826 z"
     fill="#000b1b"
     id="path1" />
  <path
     d="m 205.25106,140.555 c -0.537,-2.027 -1.407,-3.95 -2.574,-5.692 0.25,-0.918 0.44,-1.85 0.568,-2.791 0.828,-5.976 -1.243,-11.447 -5.148,-15.681 -2.115,-2.312 -4.382,-3.838 -6.783,-4.775 1.576,-6.743 2.374,-13.644 2.378,-20.569 0,-3.162 -0.179,-6.26 -0.479,-9.312 -0.157,-1.524 -0.346,-3.045 -0.567,-4.561 -0.688,-4.473 -1.708,-8.8886 -3.052,-13.21 -0.881,-2.8393 -1.9,-5.634 -3.053,-8.374 -1.729,-4.0576 -3.748,-7.9858 -6.041,-11.754 -1.505,-2.5064 -3.143,-4.9303 -4.908,-7.261 -0.865,-1.177 -1.766,-2.3262 -2.704,-3.446 -2.778,-3.3766 -5.796,-6.5473 -9.033,-9.487 -1.074,-0.9882 -2.179,-1.9423 -3.314,-2.861 -1.117,-0.9318 -2.259,-1.8338 -3.424,-2.705 -2.345,-1.7452 -4.769,-3.3826 -7.263,-4.907 C 136.07306,4.799 119.91206,0 102.63906,0 52.348161,0 11.587161,40.762 11.587161,91.051 c -0.0013,7.012 0.8111,14 2.421,20.824 -2.16,0.938 -4.2309996,2.399 -6.1499996,4.514 -3.904,4.231 -5.976,9.683 -5.147,15.658 0.125,0.95 0.315,1.89 0.567,2.814 -1.1663,1.743 -2.036,3.667 -2.57400004,5.694 -1.2,4.561 -0.805,8.674 0.72000004,12.277 -1.65700004,4.711 -1.24300004,9.727 0.916,14.088 1.57,3.185 3.817,5.648 6.586,7.851 3.2929996,2.617 7.4149996,4.842 12.3879996,6.975 5.932,2.53 13.172,4.907 16.465,5.779 8.506,2.203 16.662,3.599 24.9289,3.666 11.776,0.11 21.918,-2.66 29.18,-9.747 3.567,0.437 7.157,0.656 10.750999,0.655 3.797,-0.008 7.59,-0.248 11.358,-0.716 7.244,7.132 17.425,9.927 29.245,9.814 8.265,-0.065 16.421,-1.461 24.905,-3.667 3.315,-0.872 10.553,-3.249 16.488,-5.778 4.973,-2.138 9.094,-4.362 12.41,-6.976 2.748,-2.202 4.993,-4.666 6.564,-7.851 2.181,-4.361 2.574,-9.377 0.938,-14.088 1.511,-3.603 1.903,-7.725 0.704,-12.282 z m -8.439,11.972 c 1.671,3.171 1.778,6.754 0.303,10.091 -2.236,5.058 -7.79,9.041 -18.577,13.318 -6.707,2.661 -12.85,4.361 -12.904,4.377 -8.872,2.301 -16.896,3.469 -23.842,3.469 -11.502,0 -20.06,-3.173 -25.488,-9.441 -9.179,1.563 -18.551999,1.616 -27.747999,0.157 -5.434,6.164 -13.945,9.284 -25.35,9.284 -6.9469,0 -14.9699,-1.168 -23.8419,-3.469 -0.055,-0.016 -6.194,-1.716 -12.904,-4.377 -10.787,-4.277 -16.342,-8.258 -18.5769996,-13.318 -1.475,-3.337 -1.368,-6.92 0.303,-10.091 0.155,-0.294 0.32,-0.582 0.497,-0.859 -1.0016,-1.504 -1.6733,-3.204 -1.9712,-4.986 -0.2978,-1.782 -0.2149,-3.608 0.2432,-5.356 0.664,-2.522 2.036,-4.62 3.8979996,-6.127 -0.8965996,-1.474 -1.4850996,-3.114 -1.7299996,-4.822 -0.536,-3.714 0.696,-7.423 3.4699996,-10.446 2.159,-2.353 5.212,-3.648 8.593,-3.648 h 0.09 c -2.5487,-8.169 -3.8411,-16.678 -3.833,-25.235 0,-46.672 37.837,-84.51 84.513899,-84.51 46.678,0 84.514,37.835 84.514,84.51 0.006,8.58 -1.295,17.111 -3.859,25.299 0.408,-0.04 0.808,-0.061 1.2,-0.061 3.38,0 6.434,1.294 8.593,3.647 2.772,3.021 4.007,6.733 3.47,10.446 -0.245,1.708 -0.833,3.349 -1.73,4.823 1.862,1.506 3.234,3.604 3.898,6.127 0.457,1.748 0.54,3.573 0.242,5.356 -0.298,1.782 -0.969,3.481 -1.97,4.986 0.177,0.274 0.344,0.562 0.497,0.856 z"
     fill="#ffffff"
     id="path2" />
  <path
     d="m 196.31506,151.671 c 1.001,-1.505 1.672,-3.204 1.97,-4.986 0.298,-1.783 0.215,-3.608 -0.242,-5.356 -0.664,-2.522 -2.036,-4.62 -3.898,-6.127 0.896,-1.474 1.485,-3.114 1.73,-4.822 0.536,-3.714 -0.696,-7.423 -3.47,-10.446 -2.159,-2.353 -5.213,-3.648 -8.593,-3.648 -0.393,0 -0.792,0.02 -1.2,0.061 2.561,-8.188 3.86,-16.719 3.852,-25.298 0,-46.6711 -37.837,-84.51 -84.51,-84.51 -46.672999,0 -84.513999,37.8349 -84.513999,84.51 -0.0081,8.557 1.2843,17.066 3.833,25.235 h -0.09 c -3.38,0 -6.433,1.295 -8.592,3.648 -2.7719996,3.021 -4.0059996,6.732 -3.4699996,10.446 0.2447,1.708 0.8332,3.348 1.7299996,4.822 -1.8619996,1.507 -3.2339996,3.605 -3.8969996,6.128 -0.4578,1.748 -0.5404,3.574 -0.2422,5.357 0.2982,1.782 0.9703,3.482 1.9722,4.986 -0.179,0.277 -0.343,0.565 -0.497,0.859 -1.67,3.171 -1.778,6.754 -0.303,10.091 2.2349996,5.057 7.7899996,9.042 18.5769996,13.318 6.707,2.661 12.85,4.361 12.904,4.377 8.872,2.301 16.895,3.47 23.841,3.47 11.406,0 19.916,-3.12 25.351,-9.285 9.196,1.459 18.568999,1.406 27.747999,-0.157 5.427,6.268 13.986,9.442 25.488,9.442 6.946,0 14.97,-1.169 23.842,-3.47 0.054,-0.016 6.194,-1.716 12.904,-4.377 10.787,-4.276 16.342,-8.261 18.577,-13.318 1.475,-3.337 1.368,-6.92 -0.303,-10.091 -0.153,-0.297 -0.321,-0.584 -0.498,-0.859 z m -111.646999,13.18 c -0.468,0.819 -0.969,1.618 -1.503,2.395 -1.405,2.057 -3.253,3.628 -5.397,4.797 -4.101,2.235 -9.29,3.017 -14.563,3.017 -8.328,0 -16.866,-1.949 -21.652,-3.191 -0.235,-0.061 -29.334,-8.28 -25.65,-15.276 0.62,-1.176 1.641,-1.646 2.925,-1.646 5.187,0 14.6321,7.724 18.6921,7.724 0.906,0 1.5459,-0.387 1.8069,-1.328 1.73,-6.205 -26.293,-8.813 -23.933,-17.797 0.417,-1.59 1.546,-2.235 3.135,-2.235 6.857,-0.001 22.249,12.059 25.468,12.059 0.247,0 0.424,-0.072 0.52,-0.224 l 0.042,-0.069 c 1.51,-2.495 0.644,-4.309 -9.708,-10.649 l -0.994,-0.605 c -11.39,-6.895 -19.386,-11.043 -14.838,-15.993 0.523,-0.572 1.264,-0.825 2.165,-0.825 1.069,0 2.362,0.358 3.786,0.957 6.016,2.537 14.354,9.456 17.837,12.474 1.027,0.894 1.632,1.44 1.632,1.44 0,0 4.41,4.586 7.077,4.586 0.614,0 1.134,-0.241 1.487,-0.84 1.892,-3.188 -17.563,-17.93 -18.66,-24.012 -0.743,-4.122 0.522,-6.209 2.863,-6.209 1.112,0 2.47,0.473 3.969,1.424 4.65,2.952 13.628,18.38 16.915,24.381 1.102,2.012 2.983,2.862 4.678,2.862 3.363,0 5.992,-3.343 0.308,-7.591 -8.543,-6.393 -5.545,-16.841 -1.468,-17.484 0.174,-0.027 0.35,-0.041 0.525,-0.042 3.708,0 5.344,6.39 5.344,6.39 0,0 4.793,12.038 13.028,20.266 7.473,7.469 8.516,13.599 4.163,21.244 z m 26.628999,1.41 -0.427,0.051 -0.729,0.084 c -0.383,0.039 -0.766,0.077 -1.151,0.113 l -0.376,0.034 -0.342,0.029 -0.487,0.039 c -0.179,0.013 -0.358,0.027 -0.537,0.038 l -0.536,0.036 -0.118,0.007 -0.422,0.025 -0.179,0.009 -0.5,0.025 -0.581,0.024 -0.528,0.018 -0.352,0.01 h -0.178 c -0.11,0 -0.219,0.006 -0.329,0.007 h -0.175 c -0.11,0 -0.219,0 -0.329,0.006 l -0.447,0.005 h -0.626 c -0.491,0 -0.98,-0.005 -1.469,-0.014 l -0.396,-0.009 c -0.111999,0 -0.224999,-0.006 -0.336999,-0.009 l -0.419,-0.013 -0.522,-0.02 -0.469,-0.02 -0.122,-0.005 -0.447,-0.024 c -0.124,-0.007 -0.248,-0.013 -0.371,-0.021 l -0.289,-0.017 c -0.363,-0.023 -0.726,-0.049 -1.089,-0.077 l -0.38,-0.03 -0.48,-0.041 -0.561,-0.052 c -0.313,-0.029 -0.626,-0.061 -0.939,-0.096 h -0.015 c 4.57,-10.195 2.259,-19.716 -6.976,-28.944 -6.056,-6.048 -10.086,-14.981 -10.921,-16.942 -1.692,-5.805 -6.171,-12.258 -13.608,-12.258 -0.629,0.001 -1.256,0.051 -1.877,0.149 -3.259,0.512 -6.107,2.388 -8.139,5.21 -2.195,-2.731 -4.33,-4.902 -6.26,-6.129 -2.91,-1.844 -5.813,-2.78 -8.643,-2.78 -3.53,0 -6.687,1.45 -8.887,4.08 l -0.055,0.067 -0.124,-0.521 -0.005,-0.022 c -0.4184,-1.79 -0.7699,-3.596 -1.054,-5.412 0,-0.013 0,-0.025 -0.006,-0.037 l -0.062,-0.411 c -0.0335,-0.222 -0.0662,-0.445 -0.098,-0.667 -0.026,-0.185 -0.052,-0.37 -0.076,-0.554 -0.024,-0.184 -0.05,-0.369 -0.072,-0.554 -0.024,-0.186 -0.046,-0.371 -0.068,-0.556 -0.0211,-0.176 -0.0414,-0.352 -0.061,-0.528 l -0.0059,-0.045 c -0.0902,-0.812 -0.1675,-1.625 -0.2321,-2.439 l -0.035,-0.471 c -0.01,-0.129 -0.019,-0.259 -0.027,-0.39 0,-0.03 -0.004,-0.061 -0.006,-0.089 l -0.0329,-0.522 c -0.012,-0.189 -0.0211,-0.378 -0.0311,-0.567 -0.01,-0.188 -0.02,-0.377 -0.028,-0.567 l -0.02,-0.495 -0.006,-0.15 -0.015,-0.458 -0.0109,-0.388 c 0,-0.155 -0.0071,-0.311 -0.0101,-0.466 l -0.008,-0.489 c -0.002,-0.163 0,-0.325 -0.004,-0.488 -0.005,-0.164 0,-0.327 0,-0.491 0,-41.8521 33.931,-75.7831 75.786999,-75.7831 41.856,0 75.786,33.929 75.786,75.7831 v 0.979 c 0,0.163 -0.004,0.327 -0.008,0.489 0,0.136 -0.005,0.269 -0.009,0.405 0,0.121 -0.005,0.241 -0.01,0.358 0,0.153 -0.009,0.305 -0.014,0.458 v 0.013 c -0.013,0.332 -0.027,0.664 -0.041,0.996 l -0.006,0.11 -0.026,0.496 -0.024,0.393 c -0.056,0.931 -0.129,1.862 -0.218,2.791 v 0.013 c -0.016,0.174 -0.034,0.349 -0.053,0.523 -0.044,0.405 -0.089,0.81 -0.134,1.215 l -0.051,0.407 -0.063,0.478 c -0.022,0.175 -0.046,0.349 -0.071,0.523 -0.027,0.195 -0.056,0.389 -0.084,0.583 l -0.07,0.458 -0.082,0.52 c -0.028,0.173 -0.056,0.345 -0.089,0.518 -0.034,0.172 -0.06,0.344 -0.09,0.517 -0.06,0.344 -0.122,0.687 -0.189,1.03 -0.133,0.683 -0.272,1.364 -0.419,2.044 -0.037,0.169 -0.075,0.339 -0.114,0.508 -2.133,-2.073 -4.957,-3.202 -8.073,-3.202 -2.827,0 -5.733,0.935 -8.642,2.78 -1.931,1.226 -4.064,3.398 -6.261,6.129 -2.035,-2.823 -4.883,-4.698 -8.138,-5.211 -0.621,-0.097 -1.249,-0.147 -1.878,-0.148 -7.439,0 -11.915,6.453 -13.608,12.258 -0.839,1.961 -4.869,10.893 -10.932,16.951 -9.228,9.198 -11.557,18.677 -7.058,28.83 z m 78.24,-20.408 -0.03,0.089 c -0.021,0.057 -0.042,0.114 -0.065,0.17 -0.036,0.085 -0.074,0.168 -0.114,0.251 -0.097,0.198 -0.207,0.39 -0.328,0.574 -0.167,0.249 -0.35,0.487 -0.549,0.711 -0.046,0.052 -0.09,0.103 -0.142,0.154 -0.07,0.077 -0.145,0.152 -0.219,0.227 -1.347,1.335 -3.399,2.504 -5.719,3.578 -0.263,0.119 -0.529,0.238 -0.799,0.357 l -0.268,0.119 c -0.179,0.079 -0.357,0.158 -0.545,0.235 -0.183,0.078 -0.367,0.155 -0.551,0.231 l -0.558,0.231 c -1.305,0.537 -2.642,1.048 -3.947,1.554 l -0.557,0.216 -0.552,0.216 c -0.366,0.143 -0.728,0.286 -1.085,0.429 l -0.531,0.214 -0.521,0.214 -0.257,0.107 c -0.17,0.072 -0.338,0.142 -0.504,0.214 -3.838,1.646 -6.598,3.321 -6.018,5.4 0.016,0.059 0.034,0.115 0.054,0.169 0.052,0.154 0.123,0.3 0.211,0.436 0.052,0.082 0.112,0.159 0.179,0.229 0.682,0.708 1.923,0.596 3.488,0.034 0.127,-0.046 0.257,-0.095 0.388,-0.147 0.09,-0.034 0.179,-0.07 0.269,-0.106 l 0.135,-0.057 c 0.358,-0.152 0.737,-0.321 1.125,-0.506 0.097,-0.045 0.195,-0.089 0.293,-0.141 1.913,-0.935 4.082,-2.196 6.234,-3.343 0.33,-0.179 0.661,-0.35 0.99,-0.52 0.538,-0.279 1.081,-0.548 1.629,-0.805 2.038,-0.958 3.953,-1.638 5.494,-1.638 0.722,0 1.361,0.148 1.892,0.488 l 0.089,0.059 c 0.269,0.19 0.503,0.423 0.694,0.691 0.044,0.063 0.09,0.128 0.129,0.195 0.042,0.069 0.082,0.14 0.12,0.212 0.761,1.444 0.124,2.941 -1.366,4.408 -1.431,1.408 -3.657,2.789 -6.188,4.068 -0.187,0.095 -0.376,0.19 -0.566,0.282 -7.531,3.698 -17.391,6.483 -17.529,6.518 -2.628,0.681 -6.386,1.576 -10.619,2.245 l -0.627,0.097 -0.102,0.015 c -0.96,0.144 -1.923,0.271 -2.888,0.381 l -0.089,0.009 c -1.755,0.2 -3.555,0.345 -5.358,0.406 h -0.027 c -0.648,0.024 -1.295,0.035 -1.943,0.035 h -0.746 c -0.988,-0.014 -1.975,-0.058 -2.96,-0.134 -0.023,0 -0.047,0 -0.071,-0.005 -0.352,-0.027 -0.705,-0.06 -1.056,-0.099 -0.604,-0.065 -1.207,-0.145 -1.808,-0.239 -0.234,-0.039 -0.484,-0.08 -0.725,-0.122 -0.11,-0.02 -0.219,-0.04 -0.328,-0.062 l -0.026,-0.005 c -0.347,-0.066 -0.692,-0.139 -1.036,-0.218 -0.199,-0.045 -0.399,-0.09 -0.596,-0.143 l -0.118,-0.031 c -0.098,-0.024 -0.194,-0.05 -0.29,-0.076 l -0.053,-0.014 -0.309,-0.089 c -0.112,-0.032 -0.223,-0.065 -0.335,-0.098 l -0.04,-0.012 -0.291,-0.089 c -0.11,-0.034 -0.219,-0.07 -0.328,-0.105 -0.09,-0.03 -0.179,-0.061 -0.269,-0.09 l -0.197,-0.069 c -0.19,-0.066 -0.378,-0.136 -0.566,-0.208 l -0.178,-0.069 -0.147,-0.059 c -0.283,-0.114 -0.565,-0.233 -0.844,-0.358 l -0.186,-0.089 -0.031,-0.014 c -0.066,-0.031 -0.131,-0.062 -0.197,-0.09 -0.129,-0.062 -0.257,-0.126 -0.384,-0.191 l -0.038,-0.019 -0.184,-0.097 c -0.327,-0.17 -0.648,-0.352 -0.962,-0.546 l -0.172,-0.105 c -0.089,-0.054 -0.17,-0.109 -0.255,-0.164 l -0.224,-0.149 c -0.081,-0.054 -0.162,-0.109 -0.241,-0.166 l -0.144,-0.102 c -0.152,-0.109 -0.301,-0.22 -0.448,-0.335 -0.078,-0.06 -0.155,-0.122 -0.232,-0.179 -0.171,-0.137 -0.338,-0.278 -0.503,-0.423 l -0.007,-0.006 c -0.161,-0.139 -0.318,-0.283 -0.471,-0.43 l -0.008,-0.01 c -0.08,-0.076 -0.158,-0.152 -0.236,-0.231 -0.077,-0.079 -0.155,-0.157 -0.23,-0.236 -0.076,-0.08 -0.152,-0.161 -0.226,-0.244 -0.072,-0.078 -0.142,-0.157 -0.212,-0.237 l -0.024,-0.027 c -0.361,-0.419 -0.699,-0.858 -1.012,-1.315 l -0.124,-0.183 c -0.082,-0.121 -0.163,-0.243 -0.243,-0.365 l -0.236,-0.363 c -0.116,-0.177 -0.229,-0.356 -0.339,-0.536 -0.079,-0.128 -0.157,-0.256 -0.234,-0.385 -0.065,-0.11 -0.13,-0.219 -0.192,-0.327 -0.035,-0.059 -0.068,-0.119 -0.101,-0.179 -0.033,-0.062 -0.072,-0.125 -0.107,-0.188 l -0.056,-0.099 c -0.019,-0.033 -0.025,-0.043 -0.035,-0.065 -0.068,-0.119 -0.134,-0.24 -0.198,-0.363 -0.029,-0.053 -0.058,-0.107 -0.089,-0.16 l -0.09,-0.172 -0.089,-0.171 -0.172,-0.347 c -0.028,-0.057 -0.055,-0.114 -0.082,-0.171 -0.059,-0.123 -0.115,-0.244 -0.171,-0.365 -0.022,-0.049 -0.045,-0.098 -0.065,-0.147 -0.077,-0.167 -0.15,-0.336 -0.219,-0.507 -0.047,-0.113 -0.09,-0.225 -0.136,-0.337 -0.129,-0.33 -0.25,-0.663 -0.361,-1 -0.033,-0.1 -0.066,-0.199 -0.095,-0.299 -0.072,-0.227 -0.137,-0.456 -0.195,-0.687 -0.071,-0.269 -0.134,-0.541 -0.187,-0.814 -0.034,-0.161 -0.064,-0.323 -0.089,-0.486 -0.027,-0.161 -0.05,-0.322 -0.069,-0.482 -0.041,-0.319 -0.07,-0.639 -0.087,-0.96 0,-0.053 -0.005,-0.107 -0.006,-0.16 -0.005,-0.106 -0.008,-0.212 -0.009,-0.318 -0.056,-4.272 2.107,-8.381 6.73,-13.002 8.234,-8.227 13.028,-20.266 13.028,-20.266 0,0 0.129,-0.505 0.398,-1.231 0.09,-0.241 0.184,-0.481 0.283,-0.718 0.113,-0.268 0.234,-0.533 0.364,-0.793 l 0.038,-0.076 c 0.167,-0.332 0.348,-0.655 0.545,-0.97 0.045,-0.073 0.089,-0.146 0.141,-0.218 0.146,-0.218 0.301,-0.429 0.464,-0.634 0.126,-0.157 0.26,-0.309 0.401,-0.453 0.478,-0.492 1.023,-0.894 1.64,-1.109 l 0.078,-0.025 c 0.052,-0.017 0.103,-0.033 0.156,-0.048 0.062,-0.016 0.124,-0.031 0.186,-0.044 l 0.028,-0.005 c 0.131,-0.026 0.262,-0.044 0.395,-0.053 h 0.012 c 0.069,0 0.138,-0.007 0.209,-0.007 0.177,10e-4 0.353,0.015 0.528,0.042 0.742,0.117 1.449,0.559 2.057,1.241 l 0.082,0.096 c 0.198,0.232 0.378,0.48 0.538,0.74 0.12,0.193 0.233,0.396 0.34,0.609 0.043,0.09 0.084,0.172 0.125,0.26 0.02,0.045 0.04,0.089 0.059,0.135 0.04,0.089 0.077,0.179 0.114,0.273 0.209,0.536 0.371,1.089 0.485,1.653 0.121,0.609 0.191,1.227 0.211,1.848 0.007,0.273 0.007,0.549 0,0.829 -0.005,0.106 -0.01,0.213 -0.018,0.32 -0.082,1.189 -0.341,2.359 -0.769,3.472 -0.043,0.11 -0.09,0.222 -0.134,0.334 -0.215,0.514 -0.465,1.012 -0.747,1.492 -0.161,0.274 -0.335,0.546 -0.521,0.816 l -0.114,0.162 c -0.441,0.616 -0.933,1.194 -1.471,1.728 -0.53,0.531 -1.098,1.022 -1.699,1.471 -0.603,0.445 -1.168,0.939 -1.69,1.476 -1.503,1.578 -1.853,2.969 -1.515,4.024 0.04,0.119 0.087,0.236 0.141,0.349 0.125,0.245 0.287,0.47 0.481,0.666 l 0.053,0.053 c 0.055,0.053 0.113,0.104 0.172,0.153 l 0.06,0.049 c 0.146,0.112 0.3,0.212 0.461,0.299 0.046,0.025 0.089,0.05 0.142,0.074 0.221,0.11 0.452,0.198 0.69,0.265 l 0.066,0.017 0.089,0.024 0.078,0.019 0.083,0.018 0.083,0.017 0.079,0.013 c 0.059,0.011 0.119,0.02 0.178,0.028 l 0.058,0.008 0.103,0.011 0.064,0.006 0.106,0.008 h 0.061 l 0.11,0.005 h 0.347 l 0.099,-0.005 0.114,-0.007 0.139,-0.013 0.13,-0.016 c 0.029,0 0.059,-0.008 0.089,-0.013 0.458,-0.067 0.904,-0.196 1.326,-0.384 0.09,-0.038 0.179,-0.08 0.261,-0.124 0.176,-0.088 0.347,-0.187 0.511,-0.296 0.229,-0.15 0.445,-0.319 0.648,-0.503 l 0.141,-0.134 c 0.022,-0.022 0.045,-0.043 0.066,-0.066 0.138,-0.138 0.268,-0.284 0.389,-0.437 0.214,-0.27 0.404,-0.557 0.569,-0.859 1.957,-3.558 4.008,-7.064 6.151,-10.513 l 0.294,-0.471 0.297,-0.472 c 0.149,-0.238 0.298,-0.474 0.447,-0.707 l 0.151,-0.235 0.301,-0.469 c 0.404,-0.625 0.809,-1.243 1.217,-1.855 l 0.305,-0.456 c 0.612,-0.906 1.223,-1.788 1.827,-2.627 l 0.302,-0.414 c 0.657,-0.908 1.342,-1.795 2.053,-2.661 l 0.283,-0.338 c 0.046,-0.057 0.089,-0.112 0.14,-0.167 l 0.277,-0.321 c 0.046,-0.053 0.09,-0.105 0.138,-0.156 l 0.268,-0.303 0.135,-0.146 c 0.13,-0.141 0.262,-0.28 0.396,-0.418 0.09,-0.089 0.173,-0.179 0.26,-0.262 0.507,-0.519 1.066,-0.984 1.669,-1.387 l 0.139,-0.089 0.141,-0.09 c 0.09,-0.056 0.181,-0.11 0.274,-0.161 2.364,-1.341 4.322,-1.44 5.448,-0.314 0.683,0.683 1.06,1.814 1.04,3.387 0,0.07 0,0.139 -0.006,0.211 v 0.078 c 0,0.071 -0.006,0.144 -0.011,0.217 0,0.089 -0.011,0.179 -0.02,0.268 -0.009,0.09 -0.013,0.158 -0.022,0.237 0,0.023 -0.005,0.046 -0.008,0.069 -0.007,0.07 -0.016,0.141 -0.025,0.211 0,0.022 0,0.043 -0.009,0.065 -0.01,0.095 -0.024,0.19 -0.041,0.284 -0.011,0.087 -0.025,0.174 -0.042,0.261 -0.007,0.05 -0.017,0.099 -0.025,0.149 -0.026,0.142 -0.06,0.283 -0.101,0.421 -0.077,0.258 -0.171,0.511 -0.282,0.757 -0.048,0.107 -0.099,0.214 -0.151,0.319 -0.108,0.217 -0.23,0.439 -0.364,0.669 -0.067,0.113 -0.136,0.23 -0.21,0.347 l -0.112,0.178 c -0.114,0.179 -0.233,0.36 -0.357,0.543 -0.124,0.183 -0.257,0.37 -0.4,0.559 -0.185,0.252 -0.38,0.509 -0.586,0.769 l -0.156,0.197 c -0.441,0.549 -0.893,1.089 -1.355,1.62 l -0.367,0.415 -0.187,0.21 c -0.255,0.285 -0.511,0.568 -0.769,0.849 l -0.198,0.214 c -0.131,0.142 -0.268,0.286 -0.399,0.429 -0.134,0.145 -0.27,0.289 -0.406,0.433 l -0.412,0.434 -0.417,0.435 c -0.139,0.145 -0.279,0.292 -0.42,0.437 l -0.849,0.875 c -4.055,4.159 -8.328,8.304 -9.774,10.888 -0.096,0.169 -0.183,0.342 -0.262,0.519 -0.205,0.47 -0.291,0.872 -0.233,1.197 0.019,0.107 0.057,0.21 0.112,0.303 0.082,0.141 0.181,0.271 0.295,0.387 0.053,0.052 0.108,0.101 0.168,0.145 0.297,0.212 0.657,0.321 1.022,0.31 h 0.114 l 0.117,-0.008 0.118,-0.014 0.097,-0.014 c 0.013,-0.001 0.026,-0.004 0.039,-0.007 l 0.089,-0.017 0.024,-0.006 0.098,-0.021 0.035,-0.009 0.105,-0.027 0.125,-0.037 c 0.082,-0.025 0.164,-0.053 0.248,-0.084 0.181,-0.064 0.358,-0.138 0.531,-0.221 0.044,-0.021 0.089,-0.041 0.132,-0.064 l 0.133,-0.066 c 0.174,-0.088 0.347,-0.183 0.521,-0.286 0.139,-0.082 0.277,-0.166 0.415,-0.255 l 0.134,-0.089 c 0.044,-0.028 0.089,-0.057 0.133,-0.09 l 0.133,-0.089 0.07,-0.049 0.192,-0.134 c 0.179,-0.124 0.346,-0.251 0.516,-0.38 l 0.015,-0.011 0.268,-0.208 c 0.367,-0.29 0.716,-0.582 1.031,-0.857 l 0.21,-0.185 0.02,-0.018 0.109,-0.097 c 0.258,-0.231 0.488,-0.447 0.68,-0.626 l 0.078,-0.076 0.189,-0.179 0.113,-0.11 0.039,-0.04 0.011,-0.011 c 0.096,-0.096 0.096,-0.096 0.192,-0.193 l 0.008,-0.008 0.036,-0.032 c 0.011,-0.012 0.026,-0.024 0.043,-0.039 l 0.014,-0.013 0.038,-0.034 0.203,-0.179 0.114,-0.103 c 0.056,-0.048 0.117,-0.103 0.179,-0.162 l 0.137,-0.12 c 0.024,-0.02 0.048,-0.043 0.073,-0.065 l 0.143,-0.125 0.211,-0.184 0.111,-0.097 c 0.435,-0.379 0.965,-0.836 1.572,-1.351 l 0.249,-0.21 0.412,-0.345 0.42,-0.352 c 0.55,-0.456 1.142,-0.941 1.768,-1.445 l 0.411,-0.33 c 0.35,-0.278 0.71,-0.563 1.074,-0.849 0.146,-0.115 0.295,-0.23 0.447,-0.344 0.373,-0.288 0.748,-0.575 1.124,-0.858 0.858,-0.648 1.743,-1.297 2.638,-1.93 l 0.385,-0.267 c 0.268,-0.186 0.536,-0.371 0.805,-0.552 l 0.243,-0.165 c 0.481,-0.324 0.966,-0.641 1.455,-0.951 l 0.243,-0.153 0.241,-0.15 c 0.241,-0.149 0.482,-0.297 0.72,-0.44 l 0.239,-0.142 0.479,-0.279 c 0.157,-0.091 0.313,-0.18 0.469,-0.268 l 0.094,-0.053 0.372,-0.203 c 0.154,-0.084 0.309,-0.165 0.462,-0.244 l 0.23,-0.118 0.222,-0.113 c 0.508,-0.255 1.025,-0.491 1.551,-0.707 0.072,-0.03 0.143,-0.059 0.214,-0.09 0.141,-0.059 0.281,-0.113 0.42,-0.161 0.139,-0.047 0.276,-0.096 0.411,-0.144 0.123,-0.041 0.242,-0.079 0.358,-0.115 l 0.039,-0.012 c 0.062,-0.019 0.124,-0.037 0.186,-0.053 l 0.018,-0.005 c 0.126,-0.036 0.252,-0.069 0.379,-0.099 h 0.01 c 0.187,-0.045 0.369,-0.083 0.547,-0.113 0.061,-0.01 0.121,-0.02 0.179,-0.028 0.173,-0.026 0.347,-0.044 0.521,-0.056 0.11,-0.008 0.221,-0.011 0.331,-0.011 h 0.084 c 0.112,0 0.22,0.007 0.327,0.018 0.049,0 0.098,0.009 0.146,0.016 h 0.02 c 0.048,0.005 0.097,0.013 0.144,0.023 0.047,0.01 0.095,0.017 0.141,0.028 h 0.016 c 0.046,0.01 0.089,0.023 0.137,0.036 0.382,0.103 0.733,0.297 1.024,0.565 l 0.026,0.026 0.051,0.05 0.05,0.053 c 0.401,0.422 0.733,0.905 0.983,1.431 l 0.039,0.089 c 0.085,0.2 0.152,0.407 0.199,0.619 0.13,0.591 0.095,1.207 -0.102,1.779 -0.085,0.249 -0.189,0.491 -0.312,0.723 l -0.082,0.148 c -0.312,0.523 -0.68,1.01 -1.099,1.452 l -0.09,0.095 c -0.197,0.209 -0.402,0.412 -0.613,0.607 -0.067,0.063 -0.136,0.126 -0.206,0.189 l -0.106,0.096 c -0.22,0.195 -0.445,0.385 -0.673,0.571 -0.04,0.032 -0.081,0.064 -0.12,0.098 -0.159,0.128 -0.323,0.258 -0.493,0.388 -0.586,0.448 -1.183,0.88 -1.791,1.297 -0.358,0.245 -0.728,0.492 -1.11,0.743 -0.712,0.467 -1.429,0.924 -2.153,1.372 -0.209,0.129 -0.419,0.26 -0.633,0.39 -1.967,1.21 -4.148,2.504 -6.474,3.911 l -0.602,0.366 c -0.659,0.402 -1.281,0.786 -1.866,1.151 l -0.295,0.186 -0.558,0.358 c -0.221,0.14 -0.436,0.278 -0.645,0.414 -0.158,0.101 -0.312,0.201 -0.463,0.3 l -0.298,0.196 c -0.145,0.095 -0.289,0.19 -0.433,0.287 l -0.14,0.089 c -0.148,0.099 -0.292,0.196 -0.432,0.292 l -0.229,0.156 -0.269,0.187 -0.248,0.173 c -0.392,0.275 -0.779,0.556 -1.163,0.842 l -0.134,0.102 c -0.151,0.114 -0.297,0.228 -0.438,0.339 l -0.184,0.147 c -0.31,0.249 -0.591,0.488 -0.845,0.716 l -0.124,0.114 c -0.071,0.065 -0.141,0.13 -0.207,0.194 -0.047,0.044 -0.09,0.089 -0.137,0.133 l -0.065,0.064 c -0.143,0.143 -0.282,0.29 -0.417,0.441 l -0.066,0.076 c -0.147,0.17 -0.275,0.333 -0.388,0.492 l -0.05,0.072 c -0.13,0.19 -0.245,0.391 -0.343,0.6 l -0.034,0.073 -0.021,0.051 -0.017,0.044 -0.023,0.061 c -0.007,0.021 -0.021,0.058 -0.029,0.09 -0.041,0.119 -0.071,0.242 -0.091,0.367 l -0.01,0.067 -0.008,0.061 -0.005,0.059 v 0.314 c 0,0.026 0,0.053 0.006,0.08 10e-4,0.016 0.003,0.032 0.005,0.048 0,0.026 0.007,0.052 0.01,0.079 l 0.019,0.11 v 0.005 c 0.007,0.035 0.014,0.07 0.023,0.105 0.009,0.035 0.018,0.074 0.029,0.111 0.032,0.113 0.071,0.225 0.116,0.334 0,0.008 0.007,0.017 0.01,0.025 0.012,0.027 0.023,0.055 0.036,0.082 0.049,0.114 0.104,0.225 0.164,0.334 l 0.063,0.113 0.066,0.114 0.069,0.114 c 0.012,0.019 0.025,0.036 0.04,0.053 l 0.023,0.024 0.024,0.022 0.027,0.021 c 0.018,0.013 0.037,0.024 0.057,0.035 0.02,0.009 0.042,0.019 0.064,0.027 0.024,0.008 0.048,0.015 0.072,0.021 0.577,0.13 1.763,-0.348 3.338,-1.18 l 0.283,-0.15 0.479,-0.261 0.235,-0.13 c 0.166,-0.09 0.337,-0.19 0.51,-0.289 l 0.317,-0.179 c 2.083,-1.199 4.572,-2.74 7.144,-4.244 0.24,-0.141 0.482,-0.281 0.724,-0.421 l 0.486,-0.31 c 0.243,-0.14 0.485,-0.278 0.728,-0.414 1.034,-0.588 2.082,-1.153 3.141,-1.694 l 0.475,-0.241 c 0.316,-0.156 0.629,-0.308 0.938,-0.456 0.599,-0.284 1.204,-0.553 1.815,-0.808 l 0.335,-0.136 0.041,-0.016 c 1.774,-0.703 3.383,-1.138 4.685,-1.138 0.282,-0.002 0.563,0.021 0.841,0.069 h 0.008 c 0.09,0.016 0.171,0.034 0.253,0.055 h 0.015 c 0.12,0.029 0.238,0.066 0.352,0.112 0.091,0.033 0.179,0.072 0.264,0.118 0.373,0.189 0.692,0.468 0.93,0.812 0.02,0.029 0.039,0.059 0.057,0.09 0.088,0.134 0.164,0.275 0.226,0.423 0.037,0.085 0.071,0.173 0.103,0.268 0.032,0.096 0.06,0.188 0.089,0.287 0.212,0.758 0.191,1.56 -0.06,2.306 z"
     fill="#ff9d00"
     id="path3" />
  <path
     fill-rule="evenodd"
     clip-rule="evenodd"
     d="m 177.74006,91.539 v -0.49 c 0,-41.854 -33.918,-75.783 -75.775,-75.783 -41.854999,0 -75.785899,33.931 -75.785899,75.783 l -0.001,0.164 c -10e-4,0.109 -0.002,0.217 0,0.326 0.0048,0.163 0.0065,0.326 0.005,0.489 l 0.006,0.36 0.002,0.13 0.005,0.178 c 0.002,0.096 0.005,0.191 0.005,0.287 l 0.01,0.389 0.016,0.457 0.005,0.15 0.02,0.473 v 0.022 l 0.028,0.553 v 0.014 c 0.01,0.189 0.02,0.378 0.032,0.566 0.01,0.175 0.021,0.349 0.033,0.523 l 0.003,0.031 c 0.0088,0.149 0.0188,0.299 0.03,0.448 l 0.003,0.039 c 0.01,0.144 0.021,0.289 0.033,0.432 l 0.002,0.028 0.02,0.25 c 0.0599,0.721 0.1299,1.442 0.21,2.161 l 0.005,0.045 0.06,0.528 0.069,0.556 c 0.0463,0.37 0.0957,0.739 0.148,1.108 0.0312,0.223 0.0636,0.445 0.097,0.667 l 0.005,0.027 c 0.0747,0.502 0.1553,1.004 0.242,1.504 0.2487,1.451 0.5408,2.895 0.876,4.329 l 0.005,0.023 0.032,0.135 c 0.03,0.128 0.06,0.256 0.092,0.385 l 0.055,-0.067 c 2.2,-2.63 5.356,-4.08 8.887,-4.08 2.83,0 5.734,0.935 8.643,2.78 1.93,1.226 4.064,3.398 6.26,6.129 2.032,-2.823 4.8799,-4.698 8.1379,-5.21 0.622,-0.098 1.25,-0.148 1.878,-0.149 7.437,0 11.916,6.454 13.608,12.258 0.835,1.962 4.865,10.893 10.941,16.935 9.235,9.227 11.546,18.749 6.976,28.944 h 0.015 c 0.312,0.034 0.625,0.066 0.939,0.095 0.187,0.018 0.374,0.036 0.561,0.052 l 0.066,0.006 c 0.137,0.013 0.275,0.025 0.413,0.035 l 0.38,0.031 c 0.362,0.028 0.725,0.053 1.09,0.077 l 0.288,0.017 0.229,0.013 0.143,0.008 0.446,0.024 0.122,0.005 0.47,0.02 0.521,0.02 0.42,0.012 0.07,0.003 c 0.088,0.003 0.177999,0.007 0.266999,0.007 l 0.095,0.002 c 0.59,0.014 1.179,0.021 1.769,0.021 h 0.626 l 0.448,-0.005 c 0.11,-0.006 0.219,-0.006 0.329,-0.006 h 0.174 l 0.151,-0.003 c 0.059,-0.002 0.119,-0.004 0.178,-0.004 h 0.179 l 0.351,-0.01 0.528,-0.018 0.582,-0.025 c 0.167,-0.007 0.333,-0.015 0.5,-0.024 l 0.179,-0.01 0.265,-0.015 0.157,-0.009 0.117,-0.007 0.537,-0.036 c 0.179,-0.011 0.358,-0.025 0.537,-0.039 l 0.486,-0.038 0.343,-0.029 0.375,-0.034 c 0.385,-0.036 0.769,-0.074 1.151,-0.114 0.244,-0.027 0.486,-0.054 0.729,-0.083 l 0.427,-0.051 c -4.499,-10.153 -2.17,-19.632 7.028,-28.823 6.062,-6.057 10.092,-14.99 10.932,-16.951 1.693,-5.805 6.168,-12.258 13.607,-12.258 0.629,0.001 1.257,0.05 1.878,0.149 3.255,0.512 6.104,2.388 8.139,5.21 2.197,-2.731 4.33,-4.903 6.26,-6.129 2.909,-1.845 5.815,-2.78 8.642,-2.78 3.116,0 5.941,1.13 8.074,3.202 0.117,-0.522 0.23,-1.044 0.338,-1.568 0.066,-0.327 0.131,-0.655 0.195,-0.984 0.078,-0.404 0.152,-0.81 0.22,-1.216 0.018,-0.11 0.037,-0.22 0.058,-0.331 0.033,-0.173 0.062,-0.344 0.089,-0.518 l 0.011,-0.066 0.071,-0.453 0.07,-0.459 0.001,-0.005 c 0.028,-0.192 0.057,-0.385 0.083,-0.578 0.021,-0.146 0.041,-0.292 0.06,-0.439 l 0.012,-0.084 0.062,-0.478 0.051,-0.407 c 0.031,-0.268 0.061,-0.536 0.09,-0.805 0.013,-0.107 0.024,-0.215 0.035,-0.323 l 0.01,-0.087 c 0.019,-0.179 0.036,-0.357 0.052,-0.536 l 0.04,-0.416 c 0.083,-0.922 0.15,-1.844 0.202,-2.768 v -0.006 l 0.027,-0.49 0.005,-0.11 0.02,-0.465 c 0.008,-0.175 0.015,-0.352 0.021,-0.531 v -0.013 l 0.005,-0.129 c 0.005,-0.11 0.009,-0.22 0.009,-0.329 l 0.002,-0.045 c 0.004,-0.102 0.008,-0.208 0.008,-0.313 l 0.003,-0.09 c 0.003,-0.105 0.006,-0.209 0.006,-0.314 l 0.002,-0.089 c 0.003,-0.134 0.006,-0.267 0.006,-0.401 z m -94.570999,75.707 c 6.001,-8.802 5.576,-15.408 -2.659,-23.638 -8.235,-8.23 -13.028,-20.266 -13.028,-20.266 0,0 -1.789,-6.992 -5.869,-6.349 -4.08,0.642 -7.0729,11.089 1.469,17.484 8.542,6.395 -1.699,10.731 -4.987,4.73 -3.2889,-6.002 -12.2649,-21.429 -16.9199,-24.38 -4.654,-2.951 -7.927,-1.297 -6.83,4.785 0.545,3.019 5.613,8.171 10.348,12.985 4.804,4.885 9.265,9.42 8.312,11.025 -1.893,3.188 -8.56,-3.745 -8.56,-3.745 0,0 -20.876,-18.997 -25.421,-14.046 -4.189,4.563 2.271,8.442 12.227,14.42 0.847,0.509 1.719,1.033 2.612,1.573 11.39,6.896 12.276,8.715 10.66,11.324 -0.597,0.964 -4.41,-1.325 -9.1,-4.141 -7.995,-4.8 -18.538,-11.129 -20.026,-5.464 -1.289,4.903 6.467,7.907 13.501,10.632 5.86,2.27 11.22,4.346 10.432,7.164 -0.817,2.921 -5.246,0.485 -10.088,-2.179 -5.435,-2.991 -11.39,-6.268 -13.338,-2.57 -3.684,6.99 25.41,15.219 25.649,15.279 9.4,2.438 33.2719,7.604 41.6159,-4.623 z m 38.663999,0 c -6.002,-8.802 -5.576,-15.408 2.659,-23.638 8.235,-8.23 13.029,-20.266 13.029,-20.266 0,0 1.788,-6.992 5.868,-6.349 4.08,0.642 7.074,11.089 -1.469,17.484 -8.543,6.395 1.699,10.731 4.988,4.73 3.288,-6.002 12.26,-21.429 16.914,-24.38 4.654,-2.951 7.928,-1.297 6.831,4.785 -0.545,3.019 -5.613,8.172 -10.349,12.986 -4.803,4.884 -9.264,9.419 -8.311,11.024 1.892,3.188 8.565,-3.749 8.565,-3.749 0,0 20.875,-18.997 25.42,-14.046 4.189,4.563 -2.272,8.443 -12.228,14.422 -0.847,0.508 -1.718,1.031 -2.611,1.572 -11.391,6.895 -12.276,8.715 -10.66,11.323 0.597,0.964 4.41,-1.325 9.099,-4.14 7.996,-4.8 18.539,-11.13 20.027,-5.465 1.289,4.903 -6.467,7.908 -13.502,10.633 -5.86,2.27 -11.219,4.345 -10.432,7.164 0.817,2.921 5.244,0.484 10.084,-2.18 5.435,-2.991 11.391,-6.269 13.34,-2.57 3.684,6.995 -25.414,15.215 -25.65,15.276 -9.4,2.445 -33.272,7.611 -41.612,-4.616 z"
     fill="#ffd21e"
     id="path4" />
  <path
     fill-rule="evenodd"
     clip-rule="evenodd"
     d="m 126.57806,70.421 c 1.181,0.418 2.06,1.691 2.896,2.901 1.13,1.637 2.182,3.159 3.796,2.301 1.905,-1.012 3.466,-2.566 4.487,-4.466 1.021,-1.8995 1.455,-4.0593 1.248,-6.206 -0.154,-1.6051 -0.662,-3.1562 -1.488,-4.5412 -0.826,-1.3851 -1.949,-2.5697 -3.287,-3.4686 -1.339,-0.8988 -2.861,-1.4894 -4.455,-1.7293 -1.595,-0.2399 -3.223,-0.123 -4.767,0.3421 -2.065,0.6219 -3.899,1.8418 -5.271,3.5057 -1.371,1.6638 -2.219,3.6969 -2.436,5.8423 -0.216,2.1459 0.209,4.3076 1.221,6.212 0.748,1.407 2.408,0.744 4.16,0.043 1.374,-0.549 2.804,-1.121 3.896,-0.736 z m -51.375999,10e-4 c -1.181,0.418 -2.061,1.691 -2.897,2.901 -1.13,1.636 -2.182,3.159 -3.796,2.301 -1.423,-0.757 -2.66,-1.821 -3.623,-3.114 -0.963,-1.293 -1.627,-2.783 -1.945,-4.3638 -0.318,-1.5805 -0.282,-3.2117 0.106,-4.7764 0.389,-1.5647 1.119,-3.024 2.138,-4.2728 1.021,-1.2481 2.305,-2.2545 3.761,-2.9468 1.456,-0.6923 3.048,-1.0531 4.66,-1.0567 1.612,-0.0035 3.205,0.3504 4.664,1.0362 1.459,0.6859 2.748,1.6867 3.774,2.9303 1.372,1.6638 2.22,3.6973 2.437,5.8432 0.216,2.1459 -0.209,4.3077 -1.222,6.2118 -0.75,1.407 -2.41,0.743 -4.162,0.042 -1.373,-0.549 -2.803,-1.121 -3.895,-0.735 z m 43.427999,46.751 c 8.143,-6.416 11.134,-16.889 11.134,-23.341 0,-5.1 -3.432,-3.495 -8.925,-0.776 l -0.309,0.154 c -5.043,2.497 -11.755,5.821 -19.123,5.821 -7.368999,0 -14.080999,-3.325 -19.121999,-5.822 -5.671,-2.809 -9.228,-4.571 -9.228,0.624 0,6.655 3.182,17.584 11.917,23.934 1.152,-2.34 2.774,-4.417 4.766,-6.101 1.991,-1.684 4.309,-2.938 6.808,-3.685 0.872,-0.26 1.77,1.241 2.69,2.777 0.886999,1.483 1.792999,2.999 2.715999,2.999 0.982,0 1.948,-1.494 2.891,-2.953 0.985,-1.524 1.945,-3.01 2.874,-2.713 4.676,1.501 8.587,4.756 10.911,9.082 z"
     fill="#32343d"
     id="path5" />
  <path
     d="m 118.62706,117.172 c -4.241,3.342 -9.878,5.583 -17.218,5.583 -6.896999,0 -12.291999,-1.978 -16.434999,-4.989 1.153,-2.339 2.776,-4.416 4.767,-6.099 1.991,-1.684 4.309,-2.939 6.807,-3.687 1.713,-0.511 3.526999,5.776 5.404999,5.776 2.011,0 3.948,-6.247 5.766,-5.666 4.674,1.502 8.584,4.757 10.908,9.082 z"
     fill="#ff323d"
     id="path6" />
  <path
     fill-rule="evenodd"
     clip-rule="evenodd"
     d="m 55.731161,79.495 c -0.7738,0.521 -1.6428,0.884 -2.5571,1.068 -0.9144,0.184 -1.8561,0.186 -2.7712,0.006 -0.9151,-0.181 -1.7856,-0.54 -2.5616,-1.057 -0.776,-0.518 -1.4422,-1.183 -1.9605,-1.959 -0.5183,-0.775 -0.8784,-1.646 -1.0597,-2.56 -0.1813,-0.915 -0.1803,-1.857 0.003,-2.772 0.1833,-0.914 0.5454,-1.783 1.0653,-2.558 0.52,-0.7742 1.1877,-1.4383 1.9648,-1.9541 1.563,-1.0373 3.4735,-1.4128 5.3128,-1.0441 1.8393,0.3687 3.4575,1.4515 4.5001,3.0112 1.042,1.56 1.424,3.469 1.061,5.309 -0.363,1.841 -1.441,3.463 -2.9969,4.51 z m 101.411899,0 c -0.774,0.521 -1.643,0.884 -2.557,1.068 -0.914,0.184 -1.856,0.186 -2.771,0.006 -0.915,-0.181 -1.786,-0.54 -2.562,-1.057 -0.776,-0.518 -1.442,-1.183 -1.96,-1.959 -0.519,-0.775 -0.879,-1.646 -1.06,-2.56 -0.181,-0.915 -0.18,-1.857 0.003,-2.772 0.183,-0.914 0.545,-1.783 1.065,-2.558 0.52,-0.7742 1.188,-1.4383 1.965,-1.9541 1.563,-1.0373 3.474,-1.4128 5.313,-1.0441 1.839,0.3687 3.457,1.4515 4.5,3.0112 1.042,1.56 1.424,3.469 1.061,5.309 -0.363,1.841 -1.441,3.463 -2.997,4.51 z"
     fill="#ffad03"
     id="path7" />
</svg>
